<svg width="24" height="21" viewBox="0 0 24 21" fill="none" xmlns="http://www.w3.org/2000/svg">
<path fill-rule="evenodd" clip-rule="evenodd" d="M16.625 5.0625C16.625 4.78071 16.5131 4.51046 16.3138 4.3112C16.1145 4.11194 15.8443 4 15.5625 4H7.0625C6.78071 4 6.51046 4.11194 6.3112 4.3112C6.11194 4.51046 6 4.78071 6 5.0625V15.6875C6 15.9693 6.11194 16.2395 6.3112 16.4388C6.51046 16.6381 6.78071 16.75 7.0625 16.75H11.3125V15.6875H7.0625V5.0625H15.5625V8.25H16.625V5.0625Z" fill="#AE3292"/>
<path d="M8.125 11.4375H11.3125V12.5H8.125V11.4375ZM8.125 9.3125H14.5V10.375H8.125V9.3125Z" fill="#AE3292"/>
<path fill-rule="evenodd" clip-rule="evenodd" d="M14.5 7.1875V8.25H8.125V7.1875H14.5ZM16.0938 14.0938L18.75 15.1562V14.0938L16.0938 12.7656V11.4375C16.0938 11.2966 16.0378 11.1615 15.9382 11.0618C15.8385 10.9622 15.7034 10.9062 15.5625 10.9062C15.4216 10.9062 15.2865 10.9622 15.1868 11.0618C15.0872 11.1615 15.0312 11.2966 15.0312 11.4375V12.7656L12.375 14.0938V15.1562L15.0312 14.0938V15.9531L13.9688 16.75V17.2812L15.5625 16.75L17.1562 17.2812V16.75L16.0938 15.9531V14.0938Z" fill="#AE3292"/>
</svg>
