<svg width="29" height="29" viewBox="0 0 29 29" fill="none" xmlns="http://www.w3.org/2000/svg">
<path d="M9.66671 6.04167C9.66671 6.68261 9.92132 7.2973 10.3745 7.75051C10.8277 8.20372 11.4424 8.45833 12.0834 8.45833H16.9167C17.5576 8.45833 18.1723 8.20372 18.6255 7.75051C19.0788 7.2973 19.3334 6.68261 19.3334 6.04167M9.66671 6.04167H7.25004C6.6091 6.04167 5.99441 6.29628 5.5412 6.74949C5.08799 7.2027 4.83337 7.81739 4.83337 8.45833V22.9583C4.83337 23.5993 5.08799 24.214 5.5412 24.6672C5.99441 25.1204 6.6091 25.375 7.25004 25.375H21.75C22.391 25.375 23.0057 25.1204 23.4589 24.6672C23.9121 24.214 24.1667 23.5993 24.1667 22.9583V8.45833C24.1667 7.81739 23.9121 7.2027 23.4589 6.74949C23.0057 6.29628 22.391 6.04167 21.75 6.04167H19.3334H9.66671ZM9.66671 6.04167C9.66671 5.40073 9.92132 4.78604 10.3745 4.33283C10.8277 3.87961 11.4424 3.625 12.0834 3.625H16.9167C17.5576 3.625 18.1723 3.87961 18.6255 4.33283C19.0788 4.78604 19.3334 5.40073 19.3334 6.04167H9.66671Z" stroke="#969696" stroke-width="2" stroke-linecap="round" stroke-linejoin="round"/>
<path d="M10.875 16.9165L13.2917 19.3332L18.125 13.2915" stroke="#969696" stroke-width="2" stroke-linecap="round" stroke-linejoin="round"/>
</svg>
