<svg width="18" height="18" viewBox="0 0 18 18" fill="none" xmlns="http://www.w3.org/2000/svg">
<path d="M15.75 7.5V3C15.75 2.175 15.075 1.5 14.25 1.5H2.25C1.425 1.5 0.7575 2.175 0.7575 3L0.75 12C0.75 12.825 1.425 13.5 2.25 13.5H10.5V9.75C10.5 8.505 11.505 7.5 12.75 7.5H15.75ZM8.6475 8.0025C8.4075 8.1525 8.0925 8.1525 7.8525 8.0025L2.55 4.6875C2.4748 4.64528 2.40894 4.58825 2.35642 4.51984C2.30389 4.45143 2.2658 4.37308 2.24443 4.28953C2.22307 4.20597 2.21888 4.11895 2.23212 4.03373C2.24536 3.94851 2.27575 3.86686 2.32146 3.79373C2.36717 3.72059 2.42724 3.65749 2.49804 3.60825C2.56885 3.559 2.6489 3.52463 2.73337 3.50722C2.81784 3.48981 2.90496 3.48973 2.98947 3.50696C3.07397 3.5242 3.1541 3.5584 3.225 3.6075L8.25 6.75L13.275 3.6075C13.3459 3.5584 13.426 3.5242 13.5105 3.50696C13.595 3.48973 13.6822 3.48981 13.7666 3.50722C13.8511 3.52463 13.9312 3.559 14.002 3.60825C14.0728 3.65749 14.1328 3.72059 14.1785 3.79373C14.2242 3.86686 14.2546 3.94851 14.2679 4.03373C14.2811 4.11895 14.2769 4.20597 14.2556 4.28953C14.2342 4.37308 14.1961 4.45143 14.1436 4.51984C14.0911 4.58825 14.0252 4.64528 13.95 4.6875L8.6475 8.0025Z" fill="#575252"/>
<path d="M16.5 10.5C16.0875 10.5 15.75 10.8375 15.75 11.25V13.5C15.75 14.325 15.075 15 14.25 15C13.425 15 12.75 14.325 12.75 13.5V10.125C12.75 9.915 12.915 9.75 13.125 9.75C13.335 9.75 13.5 9.915 13.5 10.125V12.75C13.5 13.1625 13.8375 13.5 14.25 13.5C14.6625 13.5 15 13.1625 15 12.75V10.125C15 9.62772 14.8025 9.15081 14.4508 8.79917C14.0992 8.44754 13.6223 8.25 13.125 8.25C12.6277 8.25 12.1508 8.44754 11.7992 8.79917C11.4475 9.15081 11.25 9.62772 11.25 10.125V13.5C11.25 15.1575 12.5925 16.5 14.25 16.5C15.9075 16.5 17.25 15.1575 17.25 13.5V11.25C17.25 10.8375 16.9125 10.5 16.5 10.5Z" fill="#575252"/>
</svg>
