<svg width="16" height="16" viewBox="0 0 16 16" fill="none" xmlns="http://www.w3.org/2000/svg">
<path d="M11 1.5V2.5H12.7815L11.094 4.203C10.4908 3.74755 9.75582 3.50079 9.00001 3.5C8.06501 3.5 7.19201 3.87 6.53101 4.5315C6.20428 4.85429 5.94488 5.23873 5.76786 5.66253C5.59083 6.08634 5.4997 6.54106 5.49974 7.00035C5.49979 7.45964 5.59101 7.91435 5.76813 8.33812C5.94524 8.76189 6.20472 9.14628 6.53151 9.469C6.96651 9.904 7.48451 10.2165 8.06251 10.375C8.11951 10.3315 8.18351 10.286 8.23451 10.235C8.44409 10.0218 8.59468 9.75788 8.67151 9.469C8.12717 9.4018 7.62106 9.15411 7.23401 8.7655C6.76201 8.294 6.50001 7.668 6.50001 7C6.50001 6.332 6.76251 5.707 7.23501 5.235C7.70601 4.7615 8.33201 4.5 9.00001 4.5C9.66801 4.5 10.2935 4.7625 10.765 5.235C10.9983 5.46586 11.1834 5.74077 11.3096 6.04376C11.4358 6.34675 11.5005 6.67179 11.5 7C11.5 7.4325 11.3775 7.835 11.172 8.203C11.22 8.461 11.25 8.732 11.25 9C11.25 9.249 11.229 9.495 11.1875 9.735C11.2875 9.6535 11.3765 9.561 11.469 9.469C12.13 8.807 12.5 7.935 12.5 7C12.5 6.235 12.248 5.508 11.797 4.906L13.5 3.219V5H14.5V1.5H11ZM7.93751 5.625C7.88051 5.6685 7.81651 5.714 7.76551 5.765C7.54951 5.982 7.40851 6.245 7.32851 6.5315C7.87351 6.6015 8.37101 6.8395 8.76601 7.2345C9.23851 7.706 9.50101 8.332 9.50101 8.9995C9.50101 9.667 9.23851 10.2925 8.76601 10.7645C8.29401 11.2385 7.66801 11.5 7.00001 11.5C6.33201 11.5 5.70651 11.2375 5.23501 10.765C5.00154 10.5343 4.81631 10.2594 4.69013 9.95637C4.56394 9.65335 4.49931 9.32825 4.50001 9C4.50001 8.5675 4.62251 8.165 4.82801 7.797C4.77781 7.53426 4.7517 7.26749 4.75001 7C4.75001 6.751 4.77101 6.505 4.81251 6.265C4.71251 6.3465 4.62401 6.439 4.53101 6.5315C3.87101 7.192 3.50001 8.065 3.50001 9C3.50001 9.765 3.75201 10.492 4.20301 11.094L3.36001 11.9375L2.36001 10.9375L1.64001 11.6405L2.64001 12.6405L1.64001 13.6405L2.36001 14.3605L3.36001 13.3605L4.36001 14.3605L5.06251 13.6405L4.06251 12.6405L4.90651 11.7975C5.50909 12.2536 6.24425 12.5003 7.00001 12.5C7.93501 12.5 8.80801 12.13 9.46901 11.4685C10.13 10.808 10.5 9.935 10.5 9C10.5 8.065 10.13 7.193 9.46851 6.531C9.03351 6.096 8.51551 5.7835 7.93751 5.625Z" fill="#575252"/>
</svg>
