<svg width="34" height="34" viewBox="0 0 34 34" fill="none" xmlns="http://www.w3.org/2000/svg">
<path d="M14.1666 19.8335H19.8333V29.7502H14.1666V19.8335Z" fill="#AE3292"/>
<path d="M28.9284 14.4217L18.0059 3.2584C17.8742 3.12562 17.7175 3.02023 17.5449 2.94831C17.3722 2.87638 17.1871 2.83936 17 2.83936C16.813 2.83936 16.6279 2.87638 16.4552 2.94831C16.2826 3.02023 16.1259 3.12562 15.9942 3.2584L5.07171 14.4359C4.80741 14.7023 4.59868 15.0186 4.45762 15.3664C4.31657 15.7141 4.24601 16.0865 4.25004 16.4617V28.3334C4.24894 29.0586 4.52597 29.7566 5.02407 30.2837C5.52217 30.8108 6.20343 31.1269 6.92754 31.1667H11.3334V18.4167C11.3334 18.041 11.4826 17.6807 11.7483 17.415C12.014 17.1493 12.3743 17.0001 12.75 17.0001H21.25C21.6258 17.0001 21.9861 17.1493 22.2518 17.415C22.5175 17.6807 22.6667 18.041 22.6667 18.4167V31.1667H27.0725C27.7967 31.1269 28.4779 30.8108 28.976 30.2837C29.4741 29.7566 29.7511 29.0586 29.75 28.3334V16.4617C29.7512 15.7009 29.4565 14.9694 28.9284 14.4217Z" fill="#AE3292"/>
</svg>
