<svg width="31" height="25" viewBox="0 0 31 25" fill="none" xmlns="http://www.w3.org/2000/svg">
<g clip-path="url(#clip0_203_3481)">
<path d="M7.75 7.2915H18.0833V9.37484H7.75V7.2915ZM7.75 11.4582H23.25V13.5415H7.75V11.4582ZM7.75 15.6248H11.6121V17.7082H7.75V15.6248Z" fill="#969696"/>
<path d="M18.0834 3.125L14.2084 0V2.08333H5.16671C4.48156 2.08333 3.82448 2.30283 3.34001 2.69353C2.85555 3.08423 2.58337 3.61413 2.58337 4.16667V20.8333C2.58337 21.3859 2.85555 21.9158 3.34001 22.3065C3.82448 22.6972 4.48156 22.9167 5.16671 22.9167H10.3334V20.8333H5.16671V4.16667H14.2084V6.25L18.0834 3.125ZM12.9167 21.875L16.7917 25V22.9167H25.8334C26.5185 22.9167 27.1756 22.6972 27.6601 22.3065C28.1445 21.9158 28.4167 21.3859 28.4167 20.8333V4.16667C28.4167 3.61413 28.1445 3.08423 27.6601 2.69353C27.1756 2.30283 26.5185 2.08333 25.8334 2.08333H20.6667V4.16667H25.8334V20.8333H16.7917V18.75L12.9167 21.875Z" fill="#969696"/>
</g>
<defs>
<clipPath id="clip0_203_3481">
<rect width="31" height="25" fill="white"/>
</clipPath>
</defs>
</svg>
