<svg width="18" height="18" viewBox="0 0 18 18" fill="none" xmlns="http://www.w3.org/2000/svg">
<path d="M12.9375 8.07113V5.625C12.9375 4.58071 12.5227 3.57919 11.7842 2.84077C11.0458 2.10234 10.0443 1.6875 9 1.6875C7.95571 1.6875 6.95419 2.10234 6.21577 2.84077C5.47735 3.57919 5.0625 4.58071 5.0625 5.625V8.07113C4.46179 8.81447 4.08377 9.71267 3.97215 10.6619C3.86053 11.611 4.01988 12.5724 4.43176 13.4349C4.84365 14.2973 5.49124 15.0255 6.29965 15.5353C7.10807 16.0451 8.04427 16.3156 9 16.3156C9.95573 16.3156 10.8919 16.0451 11.7004 15.5353C12.5088 15.0255 13.1564 14.2973 13.5682 13.4349C13.9801 12.5724 14.1395 11.611 14.0279 10.6619C13.9162 9.71267 13.5382 8.81447 12.9375 8.07113V8.07113Z" stroke="#575252" stroke-linecap="round" stroke-linejoin="round"/>
<path d="M9 6.1875C9.78116 6.188 10.5515 6.3703 11.25 6.72V5.625C11.25 5.02826 11.0129 4.45597 10.591 4.03401C10.169 3.61205 9.59674 3.375 9 3.375C8.40326 3.375 7.83097 3.61205 7.40901 4.03401C6.98705 4.45597 6.75 5.02826 6.75 5.625V6.72C7.44851 6.37029 8.21884 6.18798 9 6.1875V6.1875ZM10.3125 10.5C10.3133 10.2649 10.251 10.0339 10.132 9.83119C10.0131 9.62844 9.84183 9.46135 9.63622 9.34741C9.43061 9.23346 9.19816 9.17682 8.96318 9.18342C8.72819 9.19001 8.49929 9.2596 8.3004 9.3849C8.1015 9.51021 7.93991 9.68663 7.8325 9.89574C7.7251 10.1048 7.67583 10.339 7.68984 10.5736C7.70385 10.8083 7.78063 11.0349 7.91215 11.2297C8.04367 11.4246 8.22511 11.5805 8.4375 11.6812V13.5H9.5625V11.6812C9.78645 11.5755 9.9758 11.4083 10.1086 11.1992C10.2413 10.9901 10.312 10.7477 10.3125 10.5V10.5Z" stroke="#575252" stroke-linecap="round" stroke-linejoin="round"/>
</svg>
