<svg width="23" height="23" viewBox="0 0 23 23" fill="none" xmlns="http://www.w3.org/2000/svg">
<path fill-rule="evenodd" clip-rule="evenodd" d="M6.2152 17.6605C10.1511 17.0855 12.8611 17.1349 16.8021 17.6806C17.0875 17.722 17.3483 17.8652 17.5363 18.0839C17.7244 18.3025 17.8269 18.5819 17.825 18.8703C17.825 19.1463 17.7302 19.4142 17.5588 19.6235C17.2601 19.9884 16.9542 20.3473 16.6411 20.6999H18.1597C18.2551 20.5861 18.3512 20.4699 18.4483 20.352C18.7894 19.9338 18.9755 19.4105 18.975 18.8708C18.975 17.7065 18.1252 16.7031 16.9597 16.5421C12.9254 15.9838 10.1056 15.9303 6.04902 16.5231C4.87142 16.695 4.02502 17.7139 4.02502 18.8864C4.02502 19.4067 4.19465 19.9214 4.51607 20.3382C4.61095 20.4613 4.70467 20.582 4.79782 20.7005H6.2796C5.98832 20.3517 5.70421 19.9971 5.42745 19.6367C5.26298 19.421 5.17425 19.1571 5.17502 18.8858C5.17502 18.2665 5.62007 17.7473 6.2152 17.6605ZM11.5 12.0749C11.9531 12.0749 12.4017 11.9857 12.8203 11.8123C13.2389 11.6389 13.6192 11.3848 13.9395 11.0644C14.2599 10.7441 14.514 10.3637 14.6874 9.94516C14.8608 9.52659 14.95 9.07796 14.95 8.6249C14.95 8.17184 14.8608 7.72322 14.6874 7.30464C14.514 6.88607 14.2599 6.50575 13.9395 6.18538C13.6192 5.86502 13.2389 5.6109 12.8203 5.43752C12.4017 5.26414 11.9531 5.1749 11.5 5.1749C10.585 5.1749 9.70751 5.53838 9.06051 6.18538C8.41351 6.83238 8.05002 7.70991 8.05002 8.6249C8.05002 9.5399 8.41351 10.4174 9.06051 11.0644C9.70751 11.7114 10.585 12.0749 11.5 12.0749ZM11.5 13.2249C12.72 13.2249 13.89 12.7403 14.7527 11.8776C15.6154 11.0149 16.1 9.8449 16.1 8.6249C16.1 7.40491 15.6154 6.23488 14.7527 5.37221C13.89 4.50954 12.72 4.0249 11.5 4.0249C10.28 4.0249 9.11 4.50954 8.24733 5.37221C7.38467 6.23488 6.90002 7.40491 6.90002 8.6249C6.90002 9.8449 7.38467 11.0149 8.24733 11.8776C9.11 12.7403 10.28 13.2249 11.5 13.2249Z" fill="#969696"/>
<path fill-rule="evenodd" clip-rule="evenodd" d="M11.5 21.85C17.2161 21.85 21.85 17.2161 21.85 11.5C21.85 5.78393 17.2161 1.15 11.5 1.15C5.78393 1.15 1.15 5.78393 1.15 11.5C1.15 17.2161 5.78393 21.85 11.5 21.85ZM11.5 23C17.8514 23 23 17.8514 23 11.5C23 5.14855 17.8514 0 11.5 0C5.14855 0 0 5.14855 0 11.5C0 17.8514 5.14855 23 11.5 23Z" fill="#969696"/>
</svg>
