<svg width="26" height="21" viewBox="0 0 26 21" fill="none" xmlns="http://www.w3.org/2000/svg">
<path d="M20.8923 14.0631H5.27752C4.77233 14.0631 4.359 14.4765 4.359 14.9817C4.359 15.4868 4.77233 15.9002 5.27752 15.9002H20.8923C21.3975 15.9002 21.8109 15.4868 21.8109 14.9817C21.8109 14.4765 21.3975 14.0631 20.8923 14.0631ZM22.3344 5.4658C22.1323 4.73099 21.3791 4.29928 20.6443 4.49217L15.767 5.79647L9.83337 0.266985C9.71061 0.150626 9.55965 0.0682552 9.39536 0.0279895C9.23108 -0.0122762 9.05914 -0.00904806 8.89648 0.0373558C8.27189 0.211874 7.97796 0.928319 8.29944 1.48862L11.4591 6.96299L6.89411 8.18462L5.45204 7.04565C5.22241 6.87113 4.92848 6.80684 4.64374 6.88032L4.34063 6.96299C4.0467 7.03647 3.90893 7.37632 4.06507 7.6335L5.79189 10.6187C6.00315 10.9769 6.42567 11.1514 6.82063 11.0504L21.3516 7.15587C22.0864 6.9538 22.5273 6.20062 22.3344 5.4658Z" fill="#AE3292"/>
</svg>
