<svg width="26" height="23" viewBox="0 0 26 23" fill="none" xmlns="http://www.w3.org/2000/svg">
<path d="M23.7548 19.7763H1.79651C1.08609 19.7763 0.504843 20.3575 0.504843 21.0679C0.504843 21.7784 1.08609 22.3596 1.79651 22.3596H23.7548C24.4653 22.3596 25.0465 21.7784 25.0465 21.0679C25.0465 20.3575 24.4653 19.7763 23.7548 19.7763ZM25.7828 7.68628C25.4986 6.65295 24.4394 6.04587 23.4061 6.31711L16.5473 8.15128L8.20318 0.375448C8.03054 0.211817 7.81825 0.0959839 7.58723 0.0393602C7.3562 -0.0172634 7.11441 -0.0127238 6.88568 0.0525316C6.00734 0.297948 5.59401 1.30545 6.04609 2.09336L10.4894 9.7917L4.06984 11.5096L2.04193 9.90795C1.71901 9.66253 1.30568 9.57212 0.90526 9.67545L0.47901 9.7917C0.0656767 9.89503 -0.128073 10.3729 0.0915101 10.7346L2.51984 14.9325C2.81693 15.4363 3.41109 15.6817 3.96651 15.5396L24.4007 10.0629C25.434 9.77878 26.054 8.71962 25.7828 7.68628Z" fill="black"/>
</svg>
