<svg width="17" height="17" viewBox="0 0 17 17" fill="none" xmlns="http://www.w3.org/2000/svg">
<path d="M15.9375 15.1863L13.4465 12.6958C14.1122 11.839 14.4263 10.7606 14.3248 9.68033C14.2234 8.60004 13.7139 7.59904 12.9003 6.88116C12.0867 6.16328 11.03 5.7825 9.94552 5.81637C8.861 5.85023 7.83016 6.2962 7.06291 7.06344C6.29566 7.83069 5.8497 8.86153 5.81584 9.94605C5.78197 11.0306 6.16274 12.0872 6.88062 12.9008C7.5985 13.7145 8.59951 14.2239 9.6798 14.3254C10.7601 14.4268 11.8385 14.1127 12.6953 13.447L15.1863 15.9375L15.9375 15.1863ZM10.0938 13.2812C9.46332 13.2812 8.84705 13.0943 8.32287 12.7441C7.79869 12.3938 7.39014 11.896 7.14888 11.3136C6.90763 10.7311 6.84451 10.0902 6.9675 9.4719C7.09049 8.85359 7.39407 8.28563 7.83985 7.83985C8.28563 7.39407 8.85359 7.09049 9.4719 6.9675C10.0902 6.84451 10.7311 6.90763 11.3136 7.14888C11.896 7.39014 12.3938 7.79869 12.7441 8.32287C13.0943 8.84705 13.2812 9.46332 13.2812 10.0938C13.2803 10.9388 12.9441 11.749 12.3466 12.3466C11.749 12.9441 10.9388 13.2803 10.0938 13.2812ZM1.0625 6.375H5.3125V7.4375H1.0625V6.375ZM1.0625 1.0625H9.5625V2.125H1.0625V1.0625ZM1.0625 3.71875H9.5625V4.78125H1.0625V3.71875Z" fill="white"/>
</svg>
