<svg width="15" height="15" viewBox="0 0 15 15" fill="none" xmlns="http://www.w3.org/2000/svg">
<path d="M12.6856 7.24898C12.8333 7.16367 12.9165 7.00242 12.8837 6.81633L12.793 6.29766C12.755 6.0832 12.5748 5.90086 12.3585 5.83125L12.0725 2.65875C12.0259 2.14102 11.6045 1.71727 11.1364 1.71727H10.7019V1.33922C10.7019 0.860391 10.3201 0.46875 9.85323 0.46875H5.18354C4.71619 0.46875 4.33393 0.860391 4.33393 1.33922V1.71727H3.89987C3.43159 1.71727 3.01018 2.14102 2.96377 2.65875L2.67924 5.82094C2.44627 5.8807 2.24823 6.07102 2.20791 6.29766L2.11627 6.81633C2.08159 7.01719 2.18049 7.19039 2.35065 7.26867V8.71664C2.18237 8.97938 2.11252 9.33492 2.1826 9.72586L2.28268 10.2898C2.39963 10.9441 2.87119 11.5013 3.41213 11.6848V12.7927H3.40979C3.18971 12.7927 2.97151 12.9452 2.9026 13.147L2.5958 14.0412C2.55479 14.1623 2.5719 14.2866 2.64338 14.382C2.7151 14.4769 2.83088 14.5312 2.96166 14.5312H5.65041C5.7819 14.5312 5.89768 14.4766 5.96893 14.381C6.03994 14.2856 6.05705 14.1612 6.01557 14.04L5.70877 13.1463C5.63916 12.9445 5.42119 12.7922 5.20205 12.7922H5.19971V11.7487H9.83612V12.7922H9.83377C9.61487 12.7922 9.39713 12.9443 9.32682 13.1466L9.02026 14.04C8.97901 14.1612 8.99588 14.2854 9.0669 14.381C9.13862 14.4766 9.25487 14.5312 9.38635 14.5312H12.0746C12.2059 14.5312 12.3219 14.4766 12.3929 14.381C12.4642 14.2854 12.4813 14.1612 12.4396 14.04L12.1332 13.1463C12.0636 12.9445 11.8454 12.7922 11.6263 12.7922H11.6237V11.6843C12.1644 11.5008 12.6362 10.9437 12.7529 10.2893L12.8539 9.72539C12.9238 9.33445 12.8537 8.97891 12.6854 8.71594L12.6856 7.24898ZM11.345 7.31414H12.2387V8.33672C12.1219 8.2894 11.997 8.26528 11.871 8.2657H11.3453L11.345 7.31414ZM2.79784 7.31414H3.69151V8.26594H3.16534C3.0393 8.26544 2.91439 8.28957 2.7976 8.33695V7.31414H2.79784ZM9.8019 2.64563C9.80073 2.66133 9.80237 2.67656 9.80026 2.6925L9.40229 5.8507C9.34463 6.30773 8.9844 6.69422 8.61596 6.69422H6.4208C6.0519 6.69422 5.69166 6.30797 5.63448 5.8507L5.2358 2.6925C5.23393 2.67656 5.23557 2.66133 5.23416 2.64563H9.8019ZM3.40909 2.69602C3.4351 2.40539 3.66455 2.15016 3.89987 2.15016H4.42065C4.49784 2.31394 4.6245 2.44937 4.78276 2.53734C4.78112 2.60555 4.78299 2.67469 4.7919 2.745L5.19057 5.9032C5.27518 6.57797 5.8269 7.12688 6.42057 7.12688H8.61573C9.20869 7.12688 9.76065 6.57797 9.84573 5.9032L10.2437 2.745C10.2526 2.67492 10.2545 2.60578 10.2531 2.53734C10.4112 2.44929 10.5378 2.31388 10.6149 2.15016H11.1362C11.3715 2.15016 11.6007 2.40539 11.627 2.69625L11.9066 5.79961H11.3743C11.0821 5.79961 10.8031 6.02391 10.7549 6.29766L10.663 6.81633C10.6278 7.01719 10.727 7.19039 10.8976 7.26891V8.26594H4.13846V7.24898C4.28588 7.16367 4.36932 7.00242 4.33674 6.81633L4.24604 6.29766C4.19729 6.02391 3.91885 5.79961 3.62612 5.79961H3.12994L3.40909 2.69602ZM4.75323 12.7924H3.85955V11.749H4.75323V12.7924ZM10.2831 12.7924V11.749H11.177V12.7924H10.2831Z" fill="#AE3292"/>
</svg>
