<svg width="22" height="19" viewBox="0 0 22 19" fill="none" xmlns="http://www.w3.org/2000/svg">
<path d="M9.39 1C9.29452 1 9.20295 1.03793 9.13544 1.10544C9.06793 1.17295 9.03 1.26452 9.03 1.36V2.08C9.03 2.17548 9.06793 2.26705 9.13544 2.33456C9.20295 2.40207 9.29452 2.44 9.39 2.44H9.93V3.3931C6.03552 3.8413 3 7.15762 3 11.17C3 15.4869 6.51306 19 10.83 19C15.1469 19 18.66 15.4869 18.66 11.17C18.6612 9.69243 18.2417 8.24507 17.4504 6.99724L18.2132 6.37966L18.5531 6.79942C18.5828 6.83618 18.6195 6.86672 18.661 6.8893C18.7026 6.91189 18.7482 6.92606 18.7952 6.93103C18.8422 6.93599 18.8897 6.93165 18.9351 6.91824C18.9804 6.90483 19.0227 6.88262 19.0594 6.85288L19.6192 6.39964C19.6933 6.33952 19.7405 6.25243 19.7505 6.15751C19.7604 6.0626 19.7322 5.96763 19.6721 5.89348L17.8599 3.655C17.8302 3.61824 17.7935 3.5877 17.7519 3.56512C17.7104 3.54253 17.6648 3.52836 17.6178 3.52339C17.5708 3.51843 17.5232 3.52277 17.4779 3.53618C17.4326 3.54959 17.3903 3.5718 17.3536 3.60154L16.7938 4.05478C16.7197 4.11491 16.6725 4.20199 16.6625 4.29691C16.6526 4.39182 16.6808 4.48679 16.7408 4.56094L17.0809 4.9807L16.3213 5.59522C15.1086 4.40038 13.5089 3.5983 11.73 3.39346V2.44H12.27C12.3655 2.44 12.457 2.40207 12.5246 2.33456C12.5921 2.26705 12.63 2.17548 12.63 2.08V1.36C12.63 1.26452 12.5921 1.17295 12.5246 1.10544C12.457 1.03793 12.3655 1 12.27 1H9.39ZM10.83 4.6C14.466 4.6 17.4 7.534 17.4 11.17C17.4 14.806 14.466 17.74 10.83 17.74C7.194 17.74 4.26 14.806 4.26 11.17C4.26 7.534 7.194 4.6 10.83 4.6ZM10.8304 5.93974L10.83 11.17L15.0121 14.3105C15.5955 13.5336 15.9509 12.6096 16.0386 11.642C16.1263 10.6745 15.9428 9.70161 15.5086 8.83252C15.0744 7.96346 14.4067 7.2325 13.5804 6.72159C12.7541 6.21068 11.8019 5.93983 10.8304 5.93974Z" fill="#AE3292"/>
</svg>
