<svg width="16" height="16" viewBox="0 0 16 16" fill="none" xmlns="http://www.w3.org/2000/svg">
<path d="M10.1927 9.78432C10.0948 9.75232 9.47634 9.47355 9.86281 8.29878H9.85727C10.8647 7.26124 11.6345 5.5917 11.6345 3.94801C11.6345 1.42063 9.95388 0.0957031 8.00065 0.0957031C6.04619 0.0957031 4.37481 1.42001 4.37481 3.94801C4.37481 5.59847 5.14034 7.27478 6.15388 8.30986C6.54896 9.34616 5.8425 9.73078 5.69481 9.78493C3.64927 10.5246 1.24927 11.8729 1.24927 13.204V13.7031C1.24927 15.5166 4.76557 15.9289 8.01973 15.9289C11.2788 15.9289 14.7508 15.5166 14.7508 13.7031V13.204C14.7508 11.8329 12.3391 10.4951 10.1927 9.78432Z" fill="#575252"/>
</svg>
