<svg width="21" height="20" viewBox="0 0 21 20" fill="none" xmlns="http://www.w3.org/2000/svg">
<path d="M0 6C0 3.17157 0 1.75736 0.87868 0.87868C1.75736 0 3.17157 0 6 0H14.25C17.0784 0 18.4926 0 19.3713 0.87868C20.25 1.75736 20.25 3.17157 20.25 6V9.36667C20.25 9.50809 20.25 9.5788 20.2061 9.62273C20.1621 9.66667 20.0914 9.66667 19.95 9.66667H15.3958C14.4444 9.66667 13.9687 9.66667 13.5945 9.82523C13.1166 10.0278 12.7361 10.4083 12.5336 10.8862C12.375 11.2603 12.375 11.7361 12.375 12.6875C12.375 13.6389 12.375 14.1147 12.5336 14.4888C12.7361 14.9667 13.1166 15.3472 13.5945 15.5498C13.9687 15.7083 14.4444 15.7083 15.3958 15.7083H20.0774C20.0984 15.7083 20.1089 15.7083 20.1177 15.7094C20.1865 15.7176 20.2408 15.7718 20.2489 15.8406C20.25 15.8494 20.25 15.8599 20.25 15.881C20.25 16.3011 20.25 16.5112 20.229 16.6878C20.0653 18.0638 18.9804 19.1486 17.6045 19.3123C17.4279 19.3333 17.2178 19.3333 16.7976 19.3333H6C3.17157 19.3333 1.75736 19.3333 0.87868 18.4547C0 17.576 0 16.1618 0 13.3333V6Z" fill="#969696"/>
</svg>
